<mxfile host="app.diagrams.net" modified="2022-04-11T07:51:20.442Z" agent="5.0 (Macintosh; Intel Mac OS X 10_15_7) AppleWebKit/537.36 (KHTML, like Gecko) Chrome/100.0.4896.75 Safari/537.36" etag="ZKCfF7BFD__xKUp8iQcG" version="17.4.0" type="github">
  <diagram id="IJo18Hn07YLy4rYTtvmD" name="Page-1">
    <mxGraphModel dx="925" dy="605" grid="1" gridSize="10" guides="1" tooltips="1" connect="1" arrows="1" fold="1" page="1" pageScale="1" pageWidth="827" pageHeight="1169" math="0" shadow="0">
      <root>
        <mxCell id="0" />
        <mxCell id="1" parent="0" />
        <mxCell id="-GFGj58JDgoOGn1VU3U_-1" value="upstream &lt;br&gt;application&lt;br&gt;resource" style="ellipse;whiteSpace=wrap;html=1;fillColor=#dae8fc;strokeColor=#6c8ebf;flipH=0;flipV=1;container=0;" vertex="1" parent="1">
          <mxGeometry x="224" y="525" width="220" height="120" as="geometry" />
        </mxCell>
        <mxCell id="-GFGj58JDgoOGn1VU3U_-2" value="downstream&lt;br&gt;application&lt;br&gt;resource" style="ellipse;whiteSpace=wrap;html=1;fillColor=none;strokeColor=#b85450;" vertex="1" parent="1">
          <mxGeometry x="404" y="525" width="200" height="120" as="geometry" />
        </mxCell>
        <mxCell id="-GFGj58JDgoOGn1VU3U_-5" value="" style="edgeStyle=orthogonalEdgeStyle;rounded=0;orthogonalLoop=1;jettySize=auto;html=1;" edge="1" parent="1" source="-GFGj58JDgoOGn1VU3U_-4" target="-GFGj58JDgoOGn1VU3U_-1">
          <mxGeometry relative="1" as="geometry" />
        </mxCell>
        <mxCell id="-GFGj58JDgoOGn1VU3U_-4" value="上游应用30天内被调用的接口" style="text;html=1;strokeColor=none;fillColor=none;align=center;verticalAlign=middle;whiteSpace=wrap;rounded=0;" vertex="1" parent="1">
          <mxGeometry x="10" y="570" width="190" height="30" as="geometry" />
        </mxCell>
        <mxCell id="-GFGj58JDgoOGn1VU3U_-7" value="" style="edgeStyle=orthogonalEdgeStyle;rounded=0;orthogonalLoop=1;jettySize=auto;html=1;" edge="1" parent="1" source="-GFGj58JDgoOGn1VU3U_-6" target="-GFGj58JDgoOGn1VU3U_-2">
          <mxGeometry relative="1" as="geometry" />
        </mxCell>
        <mxCell id="-GFGj58JDgoOGn1VU3U_-6" value="下游应用调用的接口" style="text;html=1;strokeColor=none;fillColor=none;align=center;verticalAlign=middle;whiteSpace=wrap;rounded=0;" vertex="1" parent="1">
          <mxGeometry x="630" y="570" width="140" height="30" as="geometry" />
        </mxCell>
      </root>
    </mxGraphModel>
  </diagram>
</mxfile>
